<svg width="20" height="20" viewBox="0 0 20 20" fill="none" xmlns="http://www.w3.org/2000/svg">
<path fill-rule="evenodd" clip-rule="evenodd" d="M2 4C2 3.44772 2.44772 3 3 3H17C17.5523 3 18 3.44772 18 4V16C18 16.5523 17.5523 17 17 17H3C2.44772 17 2 16.5523 2 16V4ZM5 8C5 7.44772 5.44772 7 6 7H14C14.5523 7 15 7.44772 15 8C15 8.55228 14.5523 9 14 9H6C5.44772 9 5 8.55228 5 8ZM6 11C5.44772 11 5 11.4477 5 12C5 12.5523 5.44772 13 6 13H14C14.5523 13 15 12.5523 15 12C15 11.4477 14.5523 11 14 11H6Z" fill="#BFBFBF"/>
</svg>
