<svg width="28" height="28" viewBox="0 0 28 28" fill="none" xmlns="http://www.w3.org/2000/svg">
<g clip-path="url(#clip0_359_35399)">
<rect width="28" height="28" rx="8" fill="#FF6600"/>
<path d="M-1.8667 26.1334C-1.8667 26.1334 4.52955 18.982 8.2483 15.2847C11.9671 11.5874 19.1566 5.50631 19.1566 5.50631H10.1325C10.1325 5.50631 2.0008 5.5063 2.0008 10.2252C2.0008 13.5333 6.21538 13.5333 6.21538 13.5333H14L21.7846 13.5334C21.7846 13.5334 25.9991 13.5334 25.9991 16.8415C25.9991 21.5604 17.8675 21.5604 17.8675 21.5604H8.8433C8.8433 21.5604 16.0329 15.4793 19.7516 11.782C23.4704 8.0847 29.8666 0.933351 29.8666 0.933351" stroke="white" stroke-linecap="round" stroke-linejoin="round"/>
</g>
<defs>
<clipPath id="clip0_359_35399">
<rect width="28" height="28" rx="8" fill="white"/>
</clipPath>
</defs>
</svg>
