<svg width="102" height="32" viewBox="0 0 102 32" fill="none" xmlns="http://www.w3.org/2000/svg">
<path d="M41.9893 3.04688L45.3184 3.05371C45.9245 3.06738 46.4668 3.18132 46.9453 3.39551C47.4284 3.6097 47.7998 3.93099 48.0596 4.35938C48.3239 4.78776 48.4287 5.33008 48.374 5.98633C48.333 6.51497 48.1963 6.96615 47.9639 7.33984C47.736 7.70898 47.4352 8.02116 47.0615 8.27637C46.6924 8.53158 46.2731 8.74349 45.8037 8.91211L45.25 9.1582H42.085L42.3105 7.79785L44.5254 7.80469C44.89 7.80469 45.2272 7.73861 45.5371 7.60645C45.847 7.46973 46.1045 7.27376 46.3096 7.01855C46.5146 6.75879 46.6423 6.44206 46.6924 6.06836C46.738 5.72201 46.7106 5.42806 46.6104 5.18652C46.5101 4.94499 46.346 4.76042 46.1182 4.63281C45.8903 4.50065 45.6077 4.43001 45.2705 4.4209L43.4316 4.41406L41.9414 13H40.2598L41.9893 3.04688ZM45.8174 13L44.3203 8.5293L45.9951 8.52246L47.6016 12.9043V13H45.8174ZM52.3266 13.1367C51.8207 13.1276 51.3718 13.0296 50.9799 12.8428C50.5925 12.6514 50.2712 12.3939 50.016 12.0703C49.7608 11.7422 49.5762 11.3662 49.4623 10.9424C49.3484 10.514 49.3096 10.0583 49.3461 9.5752L49.3734 9.29492C49.4236 8.79818 49.5443 8.31966 49.7357 7.85938C49.9271 7.39453 50.1824 6.9821 50.5014 6.62207C50.8249 6.25749 51.2055 5.97038 51.643 5.76074C52.0805 5.55111 52.5681 5.45312 53.1059 5.4668C53.6208 5.47591 54.0561 5.58301 54.4115 5.78809C54.767 5.99316 55.0495 6.2666 55.2592 6.6084C55.4688 6.94564 55.6078 7.32845 55.6762 7.75684C55.7491 8.18522 55.7605 8.62956 55.7104 9.08984L55.6146 9.79395H50.0639L50.2553 8.61133L54.1723 8.61816L54.1996 8.47461C54.2406 8.1875 54.2247 7.91634 54.1518 7.66113C54.0834 7.40592 53.9558 7.19629 53.7689 7.03223C53.5821 6.86816 53.3314 6.78158 53.017 6.77246C52.6752 6.76335 52.3813 6.83398 52.1352 6.98438C51.8936 7.13477 51.6931 7.33757 51.5336 7.59277C51.3741 7.84798 51.2488 8.12598 51.1576 8.42676C51.071 8.72298 51.0095 9.01237 50.973 9.29492L50.9457 9.56836C50.9184 9.83724 50.9252 10.1038 50.9662 10.3682C51.0072 10.6325 51.087 10.874 51.2055 11.0928C51.324 11.307 51.488 11.4824 51.6977 11.6191C51.9073 11.7513 52.1671 11.8219 52.477 11.8311C52.8643 11.8402 53.2152 11.7604 53.5297 11.5918C53.8487 11.4186 54.1381 11.1953 54.3979 10.9219L55.1908 11.7627C54.9812 12.0771 54.7214 12.3369 54.4115 12.542C54.1062 12.7471 53.7735 12.8997 53.4135 13C53.058 13.0957 52.6957 13.1413 52.3266 13.1367ZM64.1814 7.20312L63.9422 8.56348H58.8016L59.0408 7.20312H64.1814ZM60.1893 3.04688L58.4598 13H56.7781L58.5076 3.04688H60.1893ZM66.1775 3.04688L64.448 13H62.7869L64.5096 3.04688H66.1775ZM70.9367 11.5166L71.4973 7.96875C71.5246 7.73177 71.5087 7.51758 71.4494 7.32617C71.3902 7.13477 71.2808 6.98438 71.1213 6.875C70.9663 6.76107 70.7613 6.70182 70.5061 6.69727C70.2782 6.69271 70.064 6.73145 69.8635 6.81348C69.663 6.89095 69.4921 7.00716 69.3508 7.16211C69.2141 7.31706 69.1229 7.50618 69.0773 7.72949L67.4709 7.73633C67.4982 7.34896 67.6122 7.01172 67.8127 6.72461C68.0178 6.43294 68.2753 6.19368 68.5852 6.00684C68.8996 5.81543 69.2368 5.67643 69.5969 5.58984C69.9615 5.4987 70.3169 5.4554 70.6633 5.45996C71.1646 5.46908 71.6089 5.57617 71.9963 5.78125C72.3837 5.98633 72.6776 6.27572 72.8781 6.64941C73.0832 7.02311 73.1607 7.47428 73.1105 8.00293L72.5705 11.2979C72.5295 11.5576 72.4999 11.8242 72.4816 12.0977C72.468 12.3665 72.5044 12.6263 72.591 12.877L72.5773 13L70.9846 13.0068C70.9162 12.7653 70.882 12.5192 70.882 12.2686C70.882 12.0133 70.9003 11.7627 70.9367 11.5166ZM71.6818 8.50195L71.5178 9.52051L70.4514 9.51367C70.2326 9.51367 70.007 9.53418 69.7746 9.5752C69.5467 9.61621 69.3326 9.68685 69.132 9.78711C68.9315 9.88737 68.7629 10.0241 68.6262 10.1973C68.4895 10.3659 68.4051 10.5778 68.3732 10.833C68.3505 11.0381 68.3732 11.2158 68.4416 11.3662C68.5145 11.512 68.6239 11.6283 68.7697 11.7148C68.9156 11.8014 69.0887 11.847 69.2893 11.8516C69.5581 11.8561 69.8225 11.8037 70.0822 11.6943C70.3465 11.585 70.5744 11.43 70.7658 11.2295C70.9618 11.0244 71.0962 10.7897 71.1691 10.5254L71.5998 11.2637C71.4995 11.5417 71.3583 11.7969 71.176 12.0293C70.9982 12.2617 70.7909 12.4622 70.5539 12.6309C70.3169 12.7995 70.0572 12.9294 69.7746 13.0205C69.4966 13.1117 69.2095 13.1549 68.9133 13.1504C68.5031 13.1413 68.1294 13.0479 67.7922 12.8701C67.4549 12.6878 67.1883 12.4349 66.9924 12.1113C66.7964 11.7878 66.7098 11.4141 66.7326 10.9902C66.7554 10.5117 66.8762 10.113 67.0949 9.79395C67.3182 9.47038 67.6031 9.21517 67.9494 9.02832C68.3003 8.83691 68.6831 8.7002 69.0979 8.61816C69.5126 8.53613 69.9227 8.49512 70.3283 8.49512L71.6818 8.50195ZM77.4664 11.8311C77.7353 11.8356 77.9814 11.7855 78.2047 11.6807C78.428 11.5758 78.6126 11.4255 78.7584 11.2295C78.9088 11.0335 79.0136 10.8079 79.0729 10.5527L80.5973 10.5459C80.538 11.0745 80.3512 11.5348 80.0367 11.9268C79.7268 12.3187 79.3395 12.6217 78.8746 12.8359C78.4143 13.0456 77.9267 13.1458 77.4117 13.1367C76.8876 13.1276 76.4387 13.0205 76.065 12.8154C75.6959 12.6104 75.3974 12.3346 75.1695 11.9883C74.9417 11.6419 74.7822 11.25 74.691 10.8125C74.6044 10.3704 74.5839 9.91243 74.6295 9.43848L74.6568 9.19238C74.7115 8.68652 74.8323 8.20801 75.0191 7.75684C75.2105 7.30566 75.4635 6.9069 75.7779 6.56055C76.0969 6.20964 76.4729 5.9362 76.9059 5.74023C77.3388 5.54427 77.8264 5.45312 78.3688 5.4668C78.9156 5.47591 79.3873 5.60124 79.7838 5.84277C80.1803 6.08431 80.4833 6.41471 80.693 6.83398C80.9026 7.2487 81.0051 7.72266 81.0006 8.25586L79.4898 8.24902C79.4898 7.99382 79.4466 7.75684 79.36 7.53809C79.2779 7.31478 79.1458 7.13477 78.9635 6.99805C78.7857 6.85677 78.5533 6.78158 78.2662 6.77246C77.929 6.76335 77.6396 6.82943 77.398 6.9707C77.1611 7.11198 76.9628 7.30339 76.8033 7.54492C76.6484 7.78646 76.5253 8.05306 76.4342 8.34473C76.3476 8.63184 76.2883 8.91667 76.2564 9.19922L76.2291 9.43848C76.2063 9.68001 76.1972 9.93978 76.2018 10.2178C76.2109 10.4912 76.2542 10.7487 76.3316 10.9902C76.4091 11.2318 76.5367 11.43 76.7145 11.585C76.8967 11.7399 77.1474 11.8219 77.4664 11.8311ZM85.1855 2.5L83.3604 13H81.7471L83.5723 2.5H85.1855ZM89.1641 5.60352L85.4521 9.14453L83.3535 11.0107L83.1621 9.50684L84.6934 7.90723L87.0996 5.60352H89.1641ZM86.2725 13L84.5088 9.45898L85.6572 8.36523L88.043 13H86.2725ZM92.3578 13.1367C91.852 13.1276 91.4031 13.0296 91.0111 12.8428C90.6238 12.6514 90.3025 12.3939 90.0473 12.0703C89.7921 11.7422 89.6075 11.3662 89.4936 10.9424C89.3796 10.514 89.3409 10.0583 89.3773 9.5752L89.4047 9.29492C89.4548 8.79818 89.5756 8.31966 89.767 7.85938C89.9584 7.39453 90.2136 6.9821 90.5326 6.62207C90.8562 6.25749 91.2367 5.97038 91.6742 5.76074C92.1117 5.55111 92.5993 5.45312 93.1371 5.4668C93.6521 5.47591 94.0873 5.58301 94.4428 5.78809C94.7982 5.99316 95.0808 6.2666 95.2904 6.6084C95.5001 6.94564 95.6391 7.32845 95.7074 7.75684C95.7803 8.18522 95.7917 8.62956 95.7416 9.08984L95.6459 9.79395H90.0951L90.2865 8.61133L94.2035 8.61816L94.2309 8.47461C94.2719 8.1875 94.2559 7.91634 94.183 7.66113C94.1146 7.40592 93.987 7.19629 93.8002 7.03223C93.6133 6.86816 93.3627 6.78158 93.0482 6.77246C92.7064 6.76335 92.4125 6.83398 92.1664 6.98438C91.9249 7.13477 91.7243 7.33757 91.5648 7.59277C91.4053 7.84798 91.28 8.12598 91.1889 8.42676C91.1023 8.72298 91.0408 9.01237 91.0043 9.29492L90.977 9.56836C90.9496 9.83724 90.9564 10.1038 90.9975 10.3682C91.0385 10.6325 91.1182 10.874 91.2367 11.0928C91.3552 11.307 91.5193 11.4824 91.7289 11.6191C91.9385 11.7513 92.1983 11.8219 92.5082 11.8311C92.8956 11.8402 93.2465 11.7604 93.5609 11.5918C93.8799 11.4186 94.1693 11.1953 94.4291 10.9219L95.2221 11.7627C95.0124 12.0771 94.7527 12.3369 94.4428 12.542C94.1374 12.7471 93.8048 12.8997 93.4447 13C93.0893 13.0957 92.727 13.1413 92.3578 13.1367ZM99.2977 7.09375L98.2723 13H96.6658L97.951 5.60352H99.4754L99.2977 7.09375ZM101.704 5.54199L101.526 7.08008C101.421 7.06185 101.314 7.0459 101.205 7.03223C101.1 7.01855 100.995 7.01172 100.89 7.01172C100.612 7.00716 100.362 7.0459 100.138 7.12793C99.9152 7.20996 99.7192 7.32845 99.5506 7.4834C99.382 7.63379 99.2407 7.81608 99.1268 8.03027C99.0128 8.23991 98.924 8.47461 98.8602 8.73438L98.4773 8.76172C98.5229 8.40169 98.6004 8.02799 98.7098 7.64062C98.8237 7.25326 98.9809 6.89323 99.1814 6.56055C99.382 6.22331 99.6372 5.95215 99.9471 5.74707C100.257 5.53743 100.633 5.43717 101.075 5.44629C101.18 5.44629 101.285 5.4554 101.389 5.47363C101.494 5.49186 101.599 5.51465 101.704 5.54199ZM49.666 19.0469L47.9365 29H46.3096L43.1855 21.8018L41.9414 29H40.2598L41.9893 19.0469H43.6162L46.7471 26.2588L47.998 19.0469H49.666ZM53.4203 29.1367C52.9145 29.1276 52.4656 29.0296 52.0736 28.8428C51.6863 28.6514 51.365 28.3939 51.1098 28.0703C50.8546 27.7422 50.67 27.3662 50.5561 26.9424C50.4421 26.514 50.4034 26.0583 50.4398 25.5752L50.4672 25.2949C50.5173 24.7982 50.6381 24.3197 50.8295 23.8594C51.0209 23.3945 51.2761 22.9821 51.5951 22.6221C51.9187 22.2575 52.2992 21.9704 52.7367 21.7607C53.1742 21.5511 53.6618 21.4531 54.1996 21.4668C54.7146 21.4759 55.1498 21.583 55.5053 21.7881C55.8607 21.9932 56.1433 22.2666 56.3529 22.6084C56.5626 22.9456 56.7016 23.3285 56.7699 23.7568C56.8428 24.1852 56.8542 24.6296 56.8041 25.0898L56.7084 25.7939H51.1576L51.349 24.6113L55.266 24.6182L55.2934 24.4746C55.3344 24.1875 55.3184 23.9163 55.2455 23.6611C55.1771 23.4059 55.0495 23.1963 54.8627 23.0322C54.6758 22.8682 54.4252 22.7816 54.1107 22.7725C53.7689 22.7633 53.475 22.834 53.2289 22.9844C52.9874 23.1348 52.7868 23.3376 52.6273 23.5928C52.4678 23.848 52.3425 24.126 52.2514 24.4268C52.1648 24.723 52.1033 25.0124 52.0668 25.2949L52.0395 25.5684C52.0121 25.8372 52.0189 26.1038 52.06 26.3682C52.101 26.6325 52.1807 26.874 52.2992 27.0928C52.4177 27.307 52.5818 27.4824 52.7914 27.6191C53.001 27.7513 53.2608 27.8219 53.5707 27.8311C53.9581 27.8402 54.309 27.7604 54.6234 27.5918C54.9424 27.4186 55.2318 27.1953 55.4916 26.9219L56.2846 27.7627C56.0749 28.0771 55.8152 28.3369 55.5053 28.542C55.1999 28.7471 54.8673 28.8997 54.5072 29C54.1518 29.0957 53.7895 29.1413 53.4203 29.1367ZM59.9637 27.2842L62.5818 21.6035H63.6619L63.0467 23.4014L60.4354 29H59.4715L59.9637 27.2842ZM59.9705 21.6035L60.2645 27.4824L60.1004 29H59.0955L58.4393 21.6035H59.9705ZM64.2088 27.2363L66.4168 21.6035H68.0301L64.8104 29H63.7439L64.2088 27.2363ZM63.7918 21.6035L64.448 27.3867L64.3592 29H63.4773L62.7596 23.2373L62.7801 21.6035H63.7918ZM72.5705 26.9561C72.607 26.7054 72.5523 26.5117 72.4064 26.375C72.2606 26.2337 72.0783 26.1266 71.8596 26.0537C71.6408 25.9808 71.4403 25.9215 71.258 25.876C70.98 25.8076 70.702 25.721 70.424 25.6162C70.1506 25.5068 69.8999 25.3701 69.6721 25.2061C69.4442 25.042 69.2642 24.8415 69.132 24.6045C68.9999 24.363 68.9406 24.0758 68.9543 23.7432C68.9725 23.3604 69.0728 23.0254 69.2551 22.7383C69.4374 22.4512 69.6721 22.2119 69.9592 22.0205C70.2508 21.8291 70.5699 21.6878 70.9162 21.5967C71.2626 21.5055 71.6066 21.4622 71.9484 21.4668C72.427 21.4759 72.8667 21.5693 73.2678 21.7471C73.6734 21.9248 73.9969 22.1868 74.2385 22.5332C74.4846 22.8796 74.6053 23.3079 74.6008 23.8184L73.0012 23.8115C73.0103 23.5837 72.9693 23.3877 72.8781 23.2236C72.7915 23.055 72.6639 22.9251 72.4953 22.834C72.3267 22.7428 72.1239 22.695 71.8869 22.6904C71.6818 22.6859 71.479 22.7201 71.2785 22.793C71.0826 22.8659 70.9139 22.9753 70.7727 23.1211C70.6314 23.2669 70.5448 23.4515 70.5129 23.6748C70.4855 23.848 70.5106 23.9915 70.5881 24.1055C70.6656 24.2148 70.7727 24.3037 70.9094 24.3721C71.0461 24.4404 71.1896 24.4974 71.34 24.543C71.495 24.584 71.634 24.6182 71.757 24.6455C72.1444 24.7503 72.5249 24.8848 72.8986 25.0488C73.2723 25.2083 73.5777 25.4339 73.8146 25.7256C74.0516 26.0127 74.1587 26.391 74.1359 26.8604C74.1223 27.2614 74.0174 27.6077 73.8215 27.8994C73.6255 28.1865 73.3749 28.4235 73.0695 28.6104C72.7642 28.7926 72.4292 28.9271 72.0646 29.0137C71.7046 29.1003 71.3492 29.1413 70.9982 29.1367C70.5152 29.1276 70.0594 29.0273 69.6311 28.8359C69.2072 28.6445 68.8654 28.3688 68.6057 28.0088C68.3505 27.6442 68.2229 27.1999 68.2229 26.6758L69.7746 26.6826C69.7746 26.9469 69.827 27.1702 69.9318 27.3525C70.0412 27.5348 70.1916 27.6738 70.383 27.7695C70.579 27.8607 70.8068 27.9085 71.0666 27.9131C71.2808 27.9131 71.495 27.8835 71.7092 27.8242C71.9279 27.7604 72.1148 27.6579 72.2697 27.5166C72.4292 27.3753 72.5295 27.1885 72.5705 26.9561Z" fill="#505050"/>
<path d="M1 30.9527C1 30.9527 3.49537 31.9652 6.34722 24.6284C9.19907 17.2916 11.2431 10.7005 13.4786 7.40708C15.7142 4.1137 17.8201 3.45653 19.6025 3.96241C21.3849 4.46829 22.0939 7.5391 20.7507 9.92225C15.9382 18.4607 8.37777 21.3614 8.37777 21.3614M8.37777 21.3614C8.37777 21.3614 14.6401 23.1101 12.6795 29.9406M8.37777 21.3614H21.8077M19.8624 29.9406C19.8624 29.9406 21.4264 21.5129 23.7729 16.6617C25.6468 12.7876 27.2695 10.3225 29.007 8.66467M5 4.99998C8.5 1.49998 13 1.49998 13 1.49998H19C19 1.49998 23 0.99998 27 4.99998C31 8.99998 30.5 13 30.5 13V19C30.5 19 30.5 23.5 27 27C23.5 30.5 19 30.5 19 30.5H13C13 30.5 8.5 30.5 5 27C1.5 23.5 1.5 19 1.5 19V13" stroke="#111111" stroke-linecap="round" stroke-linejoin="round"/>
</svg>
