<svg width="14" height="14" viewBox="0 0 14 14" fill="none" xmlns="http://www.w3.org/2000/svg">
<path d="M12.9738 10.3944C12.9556 10.3647 12.9293 10.3408 12.8981 10.3255C12.8669 10.3102 12.8321 10.304 12.7975 10.3078C12.6101 10.3078 12.4226 10.3342 12.2313 10.3342C11.061 10.3368 9.91094 10.0269 8.89919 9.43619C7.88743 8.84551 7.05035 7.99533 6.47375 6.97282C5.89715 5.9503 5.60178 4.79223 5.61793 3.61733C5.63408 2.44244 5.96116 1.29299 6.56564 0.286836C6.58385 0.257113 6.59346 0.222892 6.59342 0.187997C6.59338 0.153102 6.58368 0.118906 6.5654 0.0892273C6.54712 0.0595487 6.52098 0.0355566 6.4899 0.0199305C6.45882 0.00430432 6.42403 -0.00234478 6.3894 0.000733673C4.59633 0.157221 2.9326 1.00249 1.74508 2.36031C0.557561 3.71814 -0.0621107 5.48373 0.0152509 7.28901C0.0926125 9.09428 0.861039 10.7999 2.16033 12.0503C3.45962 13.3007 5.18951 13.9994 6.98935 14.0007C8.19872 14.0066 9.38861 13.695 10.441 13.0967C11.4934 12.4984 12.3717 11.6343 12.9888 10.5901C13.0049 10.5594 13.012 10.5247 13.0094 10.4901C13.0067 10.4555 12.9944 10.4223 12.9738 10.3944Z" fill="#D0D0D0"/>
</svg>
