<svg width="14" height="14" viewBox="0 0 14 14" fill="none" xmlns="http://www.w3.org/2000/svg">
<path d="M6.80924 0.143555C3.12924 0.143555 0.142578 3.13022 0.142578 6.81022C0.142578 10.4902 3.12924 13.4769 6.80924 13.4769C10.4892 13.4769 13.4759 10.4902 13.4759 6.81022C13.4759 3.13022 10.4892 0.143555 6.80924 0.143555ZM7.47591 11.4769H6.14258V10.1436H7.47591V11.4769ZM8.85591 6.31022L8.25591 6.92355C7.77591 7.41022 7.47591 7.81022 7.47591 8.81022H6.14258V8.47689C6.14258 7.74355 6.44258 7.07689 6.92258 6.59022L7.74924 5.75022C7.99591 5.51022 8.14258 5.17689 8.14258 4.81022C8.14258 4.07689 7.54258 3.47689 6.80924 3.47689C6.07591 3.47689 5.47591 4.07689 5.47591 4.81022H4.14258C4.14258 3.33689 5.33591 2.14355 6.80924 2.14355C8.28258 2.14355 9.47591 3.33689 9.47591 4.81022C9.47591 5.39689 9.23591 5.93022 8.85591 6.31022Z" fill="#D0D0D0"/>
</svg>
