<svg width="32" height="32" viewBox="0 0 32 32" fill="none" xmlns="http://www.w3.org/2000/svg">
<path d="M23.7807 12.7807H23.2807C23.2807 12.9133 23.3334 13.0405 23.4272 13.1343L23.7807 12.7807ZM23.7807 8.21927H24.2807C24.2807 7.94313 24.0569 7.71927 23.7807 7.71927V8.21927ZM19.2193 8.21927L18.8657 8.57283C18.9595 8.6666 19.0867 8.71927 19.2193 8.71927V8.21927ZM16 5L16.3536 4.64645C16.1583 4.45118 15.8417 4.45118 15.6464 4.64645L16 5ZM12.7807 8.21927V8.71927C12.9133 8.71927 13.0405 8.6666 13.1343 8.57283L12.7807 8.21927ZM8.21927 8.21927V7.71927C7.94313 7.71927 7.71927 7.94313 7.71927 8.21927H8.21927ZM8.21927 12.7807L8.57283 13.1343C8.6666 13.0405 8.71927 12.9133 8.71927 12.7807H8.21927ZM5 16L4.64645 15.6464C4.45118 15.8417 4.45118 16.1583 4.64645 16.3536L5 16ZM8.21927 19.2193H8.71927C8.71927 19.0867 8.6666 18.9595 8.57283 18.8657L8.21927 19.2193ZM8.21927 23.7807H7.71927C7.71927 24.0569 7.94313 24.2807 8.21927 24.2807V23.7807ZM12.7807 23.7807L13.1343 23.4272C13.0405 23.3334 12.9133 23.2807 12.7807 23.2807V23.7807ZM16 27L15.6464 27.3536C15.8417 27.5488 16.1583 27.5488 16.3536 27.3536L16 27ZM19.2193 23.7807V23.2807C19.0867 23.2807 18.9595 23.3334 18.8657 23.4272L19.2193 23.7807ZM23.7807 23.7807V24.2807C24.0569 24.2807 24.2807 24.0569 24.2807 23.7807H23.7807ZM23.7807 19.2193L23.4272 18.8657C23.3334 18.9595 23.2807 19.0867 23.2807 19.2193H23.7807ZM27 16L27.3536 16.3536C27.5488 16.1583 27.5488 15.8417 27.3536 15.6464L27 16ZM21.5 16C21.5 19.0376 19.0376 21.5 16 21.5V22.5C19.5899 22.5 22.5 19.5899 22.5 16H21.5ZM16 21.5C12.9624 21.5 10.5 19.0376 10.5 16H9.5C9.5 19.5899 12.4101 22.5 16 22.5V21.5ZM10.5 16C10.5 12.9624 12.9624 10.5 16 10.5V9.5C12.4101 9.5 9.5 12.4101 9.5 16H10.5ZM16 10.5C19.0376 10.5 21.5 12.9624 21.5 16H22.5C22.5 12.4101 19.5899 9.5 16 9.5V10.5ZM24.2807 12.7807V8.21927H23.2807V12.7807H24.2807ZM23.7807 7.71927H19.2193V8.71927H23.7807V7.71927ZM19.5728 7.86572L16.3536 4.64645L15.6464 5.35355L18.8657 8.57283L19.5728 7.86572ZM15.6464 4.64645L12.4272 7.86572L13.1343 8.57283L16.3536 5.35355L15.6464 4.64645ZM12.7807 7.71927H8.21927V8.71927H12.7807V7.71927ZM7.71927 8.21927V12.7807H8.71927V8.21927H7.71927ZM7.86572 12.4272L4.64645 15.6464L5.35355 16.3536L8.57283 13.1343L7.86572 12.4272ZM4.64645 16.3536L7.86572 19.5728L8.57283 18.8657L5.35355 15.6464L4.64645 16.3536ZM7.71927 19.2193V23.7807H8.71927V19.2193H7.71927ZM8.21927 24.2807H12.7807V23.2807H8.21927V24.2807ZM12.4272 24.1343L15.6464 27.3536L16.3536 26.6464L13.1343 23.4272L12.4272 24.1343ZM16.3536 27.3536L19.5728 24.1343L18.8657 23.4272L15.6464 26.6464L16.3536 27.3536ZM19.2193 24.2807H23.7807V23.2807H19.2193V24.2807ZM24.2807 23.7807V19.2193H23.2807V23.7807H24.2807ZM24.1343 19.5728L27.3536 16.3536L26.6464 15.6464L23.4272 18.8657L24.1343 19.5728ZM27.3536 15.6464L24.1343 12.4272L23.4272 13.1343L26.6464 16.3536L27.3536 15.6464Z" fill="#F15E2F" fill-opacity="0.5"/>
</svg>
