<svg width="20" height="20" viewBox="0 0 20 20" fill="none" xmlns="http://www.w3.org/2000/svg">
<path fill-rule="evenodd" clip-rule="evenodd" d="M11 16C14.866 16 18 12.866 18 9C18 5.13401 14.866 2 11 2C7.13401 2 4 5.13401 4 9C4 12.866 7.13401 16 11 16ZM11 17C15.4183 17 19 13.4183 19 9C19 4.58172 15.4183 1 11 1C6.58172 1 3 4.58172 3 9C3 11.0341 3.75912 12.8908 5.00951 14.3024L5 14.2929L4.64645 14.6464L1.64645 17.6464C1.45118 17.8417 1.45118 18.1583 1.64645 18.3536C1.84171 18.5488 2.15829 18.5488 2.35355 18.3536L5.35355 15.3536L5.70711 15L5.6976 14.9905C7.1092 16.2409 8.96595 17 11 17ZM8 8.5C7.72386 8.5 7.5 8.72386 7.5 9C7.5 9.27614 7.72386 9.5 8 9.5H11H14C14.2761 9.5 14.5 9.27614 14.5 9C14.5 8.72386 14.2761 8.5 14 8.5H11H8Z" fill="#767676"/>
</svg>
