<svg width="20" height="20" viewBox="0 0 20 20" fill="none" xmlns="http://www.w3.org/2000/svg">
<path fill-rule="evenodd" clip-rule="evenodd" d="M11 16C14.866 16 18 12.866 18 9C18 5.13401 14.866 2 11 2C7.13401 2 4 5.13401 4 9C4 12.866 7.13401 16 11 16ZM11 17C15.4183 17 19 13.4183 19 9C19 4.58172 15.4183 1 11 1C6.58172 1 3 4.58172 3 9C3 11.0292 3.75551 12.882 5.00058 14.2923L1.64645 17.6464C1.45118 17.8417 1.45118 18.1583 1.64645 18.3536C1.84171 18.5488 2.15829 18.5488 2.35355 18.3536L5.70769 14.9994C7.11804 16.2445 8.97079 17 11 17ZM11.5 6C11.5 5.72386 11.2761 5.5 11 5.5C10.7239 5.5 10.5 5.72386 10.5 6V8.5H8C7.72386 8.5 7.5 8.72386 7.5 9C7.5 9.27614 7.72386 9.5 8 9.5H10.5V12C10.5 12.2761 10.7239 12.5 11 12.5C11.2761 12.5 11.5 12.2761 11.5 12V9.5H14C14.2761 9.5 14.5 9.27614 14.5 9C14.5 8.72386 14.2761 8.5 14 8.5H11.5V6Z" fill="#767676"/>
</svg>
