<svg width="24" height="24" viewBox="0 0 24 24" fill="none" xmlns="http://www.w3.org/2000/svg">
<path d="M4.21927 8.78073V4.21927H8.78072L12 1L15.2193 4.21927H19.7807V8.78073L23 12L19.7807 15.2193V19.7807H15.2193L12 23L8.78072 19.7807H4.21927V15.2193L1 12L4.21927 8.78073ZM12 17.8355C12.8656 17.8355 13.6923 17.641 14.4315 17.3006C12.4279 16.3767 11.0274 14.3537 11.0274 12C11.0274 9.64633 12.4279 7.62334 14.4315 6.69938C13.6923 6.35897 12.8656 6.16446 12 6.16446C8.78072 6.16446 6.16446 8.78073 6.16446 12C6.16446 15.2193 8.78072 17.8355 12 17.8355Z" stroke="#FF6600" stroke-opacity="0.5" stroke-linejoin="round"/>
</svg>
